<?xml version="1.0" encoding="UTF-8"?>
<svg version="1.1" xmlns="http://www.w3.org/2000/svg" width="864" height="864">
<path d="M0 0 C5.25603571 2.13753423 8.96807851 6.76559165 12.8145752 10.79486084 C13.82065197 11.81842402 14.82860448 12.84014658 15.83833313 13.86010742 C18.48629628 16.54418163 21.10979998 19.25092954 23.72833252 21.96368408 C26.90690095 25.24820882 30.11249779 28.50631137 33.31509113 31.76738358 C35.80809402 34.30665573 38.29660076 36.84982468 40.77189636 39.40637207 C41.66665176 40.32702454 42.56140717 41.247677 43.48327637 42.19622803 C44.26522873 43.00453064 45.04718109 43.81283325 45.85282898 44.64562988 C48.1482611 46.95651802 48.1482611 46.95651802 50.93806458 49.0402832 C51.66688339 49.64507507 52.39570221 50.24986694 53.14660645 50.87298584 C53.14660645 51.53298584 53.14660645 52.19298584 53.14660645 52.87298584 C54.13660645 53.20298584 55.12660645 53.53298584 56.14660645 53.87298584 C56.14660645 54.53298584 56.14660645 55.19298584 56.14660645 55.87298584 C56.67490051 56.07563553 57.20319458 56.27828522 57.74749756 56.48707581 C61.18623019 58.47355257 63.76613269 61.24026555 66.53234863 64.04754639 C67.16381805 64.68033005 67.79528748 65.31311371 68.44589233 65.96507263 C70.53305474 68.05872664 72.61314999 70.15926489 74.69348145 72.25970459 C76.14782484 73.72032194 77.60268696 75.18042297 79.05804443 76.64002991 C82.89296971 80.48826498 86.72229928 84.34201644 90.55004883 88.1973877 C96.66093343 94.35134699 102.77841649 100.4987271 108.89933014 106.64270973 C111.02868832 108.78222171 113.15455709 110.92515513 115.28009033 113.06846619 C116.60103546 114.39624787 117.9220949 115.72391584 119.24328613 117.05145264 C120.11643967 117.93471222 120.11643967 117.93471222 121.00723267 118.83581543 C124.71510476 122.55371312 128.56497896 126.05486366 132.54164505 129.48389912 C133.43251993 130.25494724 134.31348783 131.03986723 135.14660645 131.87298584 C135.2425487 133.45453432 135.26848604 135.04037709 135.26686096 136.62483215 C135.26892296 138.16668434 135.26892296 138.16668434 135.27102661 139.73968506 C135.26743134 140.87687988 135.26383606 142.01407471 135.26013184 143.18572998 C135.26027786 144.37581161 135.26042389 145.56589325 135.26057434 146.79203796 C135.25999539 150.06461858 135.25496626 153.33715691 135.24800038 156.60972905 C135.24176612 160.02637249 135.24116299 163.44301667 135.23997498 166.85966492 C135.23686187 173.33367851 135.22864877 179.8076753 135.21862549 186.28168148 C135.20746369 193.65036504 135.20195373 201.01904939 135.19693005 208.3877393 C135.18646614 223.54949753 135.16886711 238.71124001 135.14660645 253.87298584 C136.03116327 253.84533205 136.03116327 253.84533205 136.93358994 253.8171196 C151.376228 253.37271185 165.8182515 253.04319129 180.26623154 252.8367424 C187.25426594 252.73420504 194.23770103 252.59484657 201.22277832 252.36419678 C207.97947924 252.14119716 214.73143229 252.02693071 221.49158478 251.97544098 C224.05477821 251.93881251 226.61774514 251.86727716 229.17888641 251.7583847 C250.21716405 250.90043424 250.21716405 250.90043424 259.14086914 258.28277588 C263.55164475 262.44499944 267.50842761 266.90838028 271.31446075 271.62505341 C273.4451694 274.23930461 275.70761591 276.54894205 278.14660645 278.87298584 C278.82723145 279.5652124 279.50785645 280.25743896 280.20910645 280.97064209 C283.09863936 283.9009547 285.91546707 286.6900005 289.14660645 289.24798584 C289.80660645 289.78423584 290.46660645 290.32048584 291.14660645 290.87298584 C291.14660645 291.53298584 291.14660645 292.19298584 291.14660645 292.87298584 C292.13660645 293.20298584 293.12660645 293.53298584 294.14660645 293.87298584 C294.14660645 294.53298584 294.14660645 295.19298584 294.14660645 295.87298584 C295.13660645 296.20298584 296.12660645 296.53298584 297.14660645 296.87298584 C297.14660645 297.53298584 297.14660645 298.19298584 297.14660645 298.87298584 C298.04483202 299.28344398 298.04483202 299.28344398 298.96120358 299.70219421 C301.07565728 300.83497606 302.43375346 301.915339 304.11305237 303.60565186 C304.94779839 304.43844162 304.94779839 304.43844162 305.79940796 305.28805542 C306.39746246 305.89487152 306.99551697 306.50168762 307.61169434 307.12689209 C308.57094566 308.08811478 308.57094566 308.08811478 309.54957581 309.0687561 C311.6607727 311.18644013 313.76490723 313.31100523 315.8692627 315.43548584 C317.3355858 316.90807981 318.80242555 318.3801595 320.26976013 319.85174561 C324.13126409 323.72655322 327.98716338 327.60688659 331.8414917 331.48883057 C338.01333579 337.70379213 344.19189728 343.91205771 350.37371635 350.11709595 C352.53373218 352.28734621 354.69030864 354.46097182 356.84657288 356.63494873 C358.16790414 357.96310724 359.48934493 359.29115679 360.81091309 360.61907959 C361.41099182 361.22589569 362.01107056 361.83271179 362.6293335 362.45791626 C365.0400515 364.87523345 367.29647655 366.97289925 370.14660645 368.87298584 C370.65820885 370.91317654 370.65820885 370.91317654 370.85055542 373.47782898 C370.96748969 374.93629683 370.96748969 374.93629683 371.08678627 376.42422867 C371.1559947 377.49649578 371.22520313 378.56876289 371.29650879 379.67352295 C371.41830537 381.36645037 371.41830537 381.36645037 371.54256248 383.09357834 C372.55721245 397.98525628 373.13340688 412.89117036 373.52160645 427.81048584 C373.55124434 428.88143147 373.55124434 428.88143147 373.58148098 429.97401237 C375.33617151 494.29303993 375.33617151 494.29303993 355.4803772 516.29277039 C352.10967687 519.81320006 348.5205437 523.01262569 344.77160645 526.12298584 C344.16602654 526.62682171 343.56044662 527.13065758 342.93651581 527.6497612 C323.14931387 543.87298584 323.14931387 543.87298584 317.14660645 543.87298584 C316.81660645 544.86298584 316.48660645 545.85298584 316.14660645 546.87298584 C315.48660645 546.87298584 314.82660645 546.87298584 314.14660645 546.87298584 C314.14660645 547.53298584 314.14660645 548.19298584 314.14660645 548.87298584 C312.77160645 550.49798584 312.77160645 550.49798584 311.14660645 551.87298584 C310.48660645 551.87298584 309.82660645 551.87298584 309.14660645 551.87298584 C309.14660645 552.53298584 309.14660645 553.19298584 309.14660645 553.87298584 C307.73400688 555.26502323 307.73400688 555.26502323 305.74642944 556.90327454 C300.75514942 561.1518219 296.16398322 565.73751964 291.54943848 570.3883667 C290.13042935 571.81208244 288.71141916 573.23579713 287.29236865 574.65947163 C285.78340178 576.17428659 284.27567881 577.69032983 282.76828384 579.20670891 C279.61985593 582.37355489 276.46697403 585.53594155 273.31332397 588.69758606 C264.35226801 597.6827063 255.39727369 606.67385408 246.44641113 615.66912842 C241.49045596 620.64959515 236.53094146 625.62648973 231.56755149 630.59954745 C228.42955692 633.74409212 225.29612553 636.89309352 222.16597295 640.04544342 C219.77044162 642.45540583 217.36843801 644.85888359 214.96740723 647.2633667 C214.09884598 648.14068954 213.23028473 649.01801239 212.33540344 649.92192078 C211.54487076 650.71114929 210.75433807 651.50037781 209.93984985 652.31352234 C209.25152132 653.00499328 208.56319279 653.69646421 207.85400581 654.40888882 C206.14660645 655.87298584 206.14660645 655.87298584 204.14660645 655.87298584 C203.81660645 656.86298584 203.48660645 657.85298584 203.14660645 658.87298584 C202.48660645 658.87298584 201.82660645 658.87298584 201.14660645 658.87298584 C201.14660645 659.53298584 201.14660645 660.19298584 201.14660645 660.87298584 C200.48660645 660.87298584 199.82660645 660.87298584 199.14660645 660.87298584 C198.81660645 661.86298584 198.48660645 662.85298584 198.14660645 663.87298584 C197.48660645 663.87298584 196.82660645 663.87298584 196.14660645 663.87298584 C196.14660645 664.53298584 196.14660645 665.19298584 196.14660645 665.87298584 C194.65444183 667.34570408 194.65444183 667.34570408 192.60498047 669.04670715 C188.48012531 672.55676936 184.62984547 676.25429077 180.81262207 680.09344482 C179.78674484 681.11910301 179.78674484 681.11910301 178.74014282 682.16548157 C176.50866513 684.39764887 174.28073786 686.63332342 172.05285645 688.86907959 C170.49509233 690.42871128 168.93710543 691.98812048 167.37890625 693.5473175 C163.29969829 697.63032396 159.22350376 701.71632574 155.14794922 705.80297852 C150.98006184 709.98113764 146.80930421 714.15642946 142.63879395 718.33197021 C134.47193459 726.5095198 126.30825881 734.69023961 118.14660645 742.87298584 C114.93626235 741.34592505 112.80918316 739.76121411 110.31848145 737.20501709 C109.60047363 736.47605225 108.88246582 735.7470874 108.1427002 734.99603271 C107.03088379 733.85231201 107.03088379 733.85231201 105.89660645 732.68548584 C104.43563484 731.18948206 102.97210706 729.69597015 101.50598145 728.20501709 C100.86112793 727.54219727 100.21627441 726.87937744 99.55187988 726.19647217 C97.61092609 724.32151711 95.6434962 722.57042143 93.59558105 720.81756592 C88.00293689 715.95745473 82.82626063 710.67681341 77.6036377 705.42767334 C76.50625815 704.32842338 75.40865365 703.22939794 74.31083679 702.13058472 C71.44187268 699.25783249 68.57592262 696.38209216 65.71063232 693.50567627 C62.79853254 690.58332726 59.88358804 687.66381884 56.96887207 684.74407959 C51.84106964 679.60675088 46.71574089 674.46696584 41.59223938 669.3253479 C40.78518051 668.51606842 39.97812164 667.70678894 39.14660645 666.87298584 C38.26401657 665.98410675 37.3814267 665.09522766 36.47209167 664.17941284 C33.68894054 661.41907068 30.72958783 658.9319962 27.7208252 656.42376709 C27.20133301 655.91200928 26.68184082 655.40025146 26.14660645 654.87298584 C26.14660645 654.21298584 26.14660645 653.55298584 26.14660645 652.87298584 C24.82660645 652.21298584 23.50660645 651.55298584 22.14660645 650.87298584 C15.21660645 643.94298584 8.28660645 637.01298584 1.14660645 629.87298584 C0.81660645 707.09298584 0.48660645 784.31298584 0.14660645 863.87298584 C-5.85339355 863.87298584 -5.85339355 863.87298584 -8.30286217 862.15901089 C-9.10549303 861.34955045 -9.90812389 860.54009001 -10.7350769 859.70610046 C-11.66573471 858.78224548 -12.59639252 857.8583905 -13.55525208 856.90653992 C-14.56945991 855.86950258 -15.58338163 854.83218536 -16.5970459 853.7946167 C-17.67723529 852.71109698 -18.75875714 851.62890423 -19.84150696 850.54794312 C-22.77863821 847.60826076 -25.69695479 844.65051353 -28.61243391 841.68937755 C-31.67123941 838.58929877 -34.74748654 835.50663035 -37.822052 832.42219543 C-43.650135 826.570286 -49.46318888 820.70368763 -55.27064097 814.83131081 C-63.77476242 806.23342243 -72.30094213 797.65745397 -80.82741737 789.08174229 C-82.08938905 787.812421 -83.3513539 786.54309294 -84.61331177 785.27375793 C-85.22999525 784.65352471 -85.84667873 784.03329149 -86.48204958 783.39426333 C-90.13193353 779.72236765 -93.77745841 776.04621309 -97.41906333 772.36610687 C-99.69387126 770.06776724 -101.97065937 767.77139532 -104.24773216 765.47529984 C-105.29672537 764.41651618 -106.34479542 763.35681692 -107.39182854 762.29609489 C-112.53178221 757.0894552 -117.69138053 751.97598034 -123.29488564 747.26221561 C-125.43279922 745.35651262 -127.06647939 743.10662854 -128.85339355 740.87298584 C-130.84642069 739.03891178 -132.88576861 737.27354289 -134.9510498 735.52142334 C-135.57882324 734.97743896 -136.20659668 734.43345459 -136.85339355 733.87298584 C-137.38018865 733.47435931 -137.90698374 733.07573278 -138.44974232 732.66502666 C-140.5344534 730.00347708 -140.22217667 727.90140026 -140.2141571 724.55189514 C-140.21672038 723.90821415 -140.21928365 723.26453315 -140.2219246 722.60134667 C-140.2268729 720.44074444 -140.21035335 718.28083833 -140.19396973 716.12030029 C-140.19312368 714.5730796 -140.19359817 713.02585769 -140.19529724 711.4786377 C-140.19615948 707.27429888 -140.17849682 703.0702158 -140.15757537 698.86593652 C-140.13884662 694.47370204 -140.13706113 690.08146197 -140.13349915 685.68919373 C-140.12416748 677.37002625 -140.09953856 669.05097677 -140.06945068 660.73186129 C-140.03594152 651.26161369 -140.01942943 641.79136051 -140.00436437 632.32106841 C-139.97298996 612.83830727 -139.92020771 593.35565604 -139.85339355 573.87298584 C-140.63969398 573.88036018 -141.42599442 573.88773453 -142.23612213 573.89533234 C-161.38266036 574.07212998 -180.52903534 574.20445054 -199.67621613 574.28748322 C-208.93576908 574.32870638 -218.19477664 574.38489131 -227.45397949 574.47650146 C-235.52586025 574.55632613 -243.59734599 574.60787196 -251.6696105 574.6256938 C-255.94269822 574.63610935 -260.21465603 574.66052434 -264.48738098 574.71882629 C-268.51290946 574.77330791 -272.53684765 574.78984361 -276.56270981 574.77784729 C-278.03654005 574.78004034 -279.51042585 574.79585124 -280.98393631 574.82662964 C-292.09983072 575.04734143 -292.09983072 575.04734143 -296.46514893 572.12390137 C-298.46996995 570.13887351 -300.16586336 568.1286193 -301.85339355 565.87298584 C-304.46982147 563.24880554 -307.09378724 560.63469288 -309.7479248 558.04876709 C-310.72060552 557.09436494 -311.69326164 556.13993772 -312.66589355 555.18548584 C-313.1679834 554.70015381 -313.67007324 554.21482178 -314.18737793 553.71478271 C-315.44756628 552.47173978 -316.65530399 551.17598692 -317.85339355 549.87298584 C-317.85339355 549.21298584 -317.85339355 548.55298584 -317.85339355 547.87298584 C-318.40368225 547.6077562 -318.95397095 547.34252655 -319.52093506 547.06925964 C-341.83523213 535.62467914 -365.29650656 516.59946127 -374.85339355 492.87298584 C-381.05535048 473.15699048 -381.48896531 451.89707401 -381.47839355 431.37298584 C-381.47895909 430.69178743 -381.47952463 430.01058903 -381.48010731 429.30874825 C-381.45209614 397.15849944 -379.52118724 366.37848339 -355.8782959 342.38470459 C-329.32077506 316.87298584 -329.32077506 316.87298584 -319.85339355 316.87298584 C-319.85339355 316.21298584 -319.85339355 315.55298584 -319.85339355 314.87298584 C-318.47839355 313.24798584 -318.47839355 313.24798584 -316.85339355 311.87298584 C-316.19339355 311.87298584 -315.53339355 311.87298584 -314.85339355 311.87298584 C-314.52339355 310.88298584 -314.19339355 309.89298584 -313.85339355 308.87298584 C-313.19339355 308.87298584 -312.53339355 308.87298584 -311.85339355 308.87298584 C-311.85339355 308.21298584 -311.85339355 307.55298584 -311.85339355 306.87298584 C-310.2791748 305.35736084 -310.2791748 305.35736084 -308.16589355 303.62298584 C-305.60704467 301.4540141 -303.51402545 299.46574411 -301.35339355 296.87298584 C-299.34553777 294.4635589 -297.51914912 292.64365694 -295.15547085 290.63587666 C-291.1087748 287.13427882 -287.29621106 283.45616383 -283.52015686 279.66673279 C-282.82799023 278.97612615 -282.1358236 278.28551951 -281.42268223 277.5739854 C-279.12581202 275.2810739 -276.83249711 272.98464074 -274.53918457 270.68817139 C-272.8846825 269.03502556 -271.22996803 267.38209228 -269.57505798 265.72935486 C-265.09806279 261.25690531 -260.62422045 256.78131447 -256.15108609 252.30500388 C-251.94349481 248.09513393 -247.7338943 243.88727463 -243.52443134 239.67927632 C-234.68705542 230.8447459 -225.8527369 222.00716328 -217.01947504 213.16851965 C-209.43761443 205.58218298 -201.85312344 197.99848435 -194.26672363 190.41668701 C-185.44909154 181.60440187 -176.63307776 172.79050295 -167.81965584 163.97400695 C-163.15664528 159.30943495 -158.49295587 154.64554707 -153.82751656 149.98340416 C-149.44795218 145.60671851 -145.0708223 141.22761289 -140.69559669 136.84659004 C-139.08593932 135.23560557 -137.47542141 133.62548043 -135.86400223 132.01625824 C-133.6729381 129.82790727 -131.48494653 127.63653095 -129.29774475 125.44432068 C-128.65243524 124.80124189 -128.00712572 124.15816309 -127.34226137 123.49559706 C-124.21888535 120.4724825 -124.21888535 120.4724825 -121.85339355 116.87298584 C-121.19339355 116.87298584 -120.53339355 116.87298584 -119.85339355 116.87298584 C-119.52339355 115.88298584 -119.19339355 114.89298584 -118.85339355 113.87298584 C-118.19339355 113.87298584 -117.53339355 113.87298584 -116.85339355 113.87298584 C-116.85339355 113.21298584 -116.85339355 112.55298584 -116.85339355 111.87298584 C-115.47839355 110.24798584 -115.47839355 110.24798584 -113.85339355 108.87298584 C-113.19339355 108.87298584 -112.53339355 108.87298584 -111.85339355 108.87298584 C-111.52339355 107.88298584 -111.19339355 106.89298584 -110.85339355 105.87298584 C-110.19339355 105.87298584 -109.53339355 105.87298584 -108.85339355 105.87298584 C-108.85339355 105.21298584 -108.85339355 104.55298584 -108.85339355 103.87298584 C-104.55106797 99.10554398 -104.55106797 99.10554398 -100.85339355 97.87298584 C-100.85339355 97.21298584 -100.85339355 96.55298584 -100.85339355 95.87298584 C-99.20336528 94.51911648 -97.53595485 93.18620442 -95.85339355 91.87298584 C-95.52339355 91.21298584 -95.19339355 90.55298584 -94.85339355 89.87298584 C-94.19339355 89.87298584 -93.53339355 89.87298584 -92.85339355 89.87298584 C-92.85339355 89.21298584 -92.85339355 88.55298584 -92.85339355 87.87298584 C-91.47839355 86.24798584 -91.47839355 86.24798584 -89.85339355 84.87298584 C-89.19339355 84.87298584 -88.53339355 84.87298584 -87.85339355 84.87298584 C-87.52339355 83.88298584 -87.19339355 82.89298584 -86.85339355 81.87298584 C-86.19339355 81.87298584 -85.53339355 81.87298584 -84.85339355 81.87298584 C-84.85339355 81.21298584 -84.85339355 80.55298584 -84.85339355 79.87298584 C-83.2088623 78.28704834 -83.2088623 78.28704834 -81.04089355 76.49798584 C-78.79088499 74.63732302 -76.9498907 73.00425881 -75.2166748 70.64642334 C-74.76679199 70.06118896 -74.31690918 69.47595459 -73.85339355 68.87298584 C-73.19339355 68.87298584 -72.53339355 68.87298584 -71.85339355 68.87298584 C-71.52339355 67.88298584 -71.19339355 66.89298584 -70.85339355 65.87298584 C-70.19339355 65.87298584 -69.53339355 65.87298584 -68.85339355 65.87298584 C-68.85339355 65.21298584 -68.85339355 64.55298584 -68.85339355 63.87298584 C-68.19339355 63.87298584 -67.53339355 63.87298584 -66.85339355 63.87298584 C-66.52339355 62.88298584 -66.19339355 61.89298584 -65.85339355 60.87298584 C-65.19339355 60.87298584 -64.53339355 60.87298584 -63.85339355 60.87298584 C-63.58526855 60.23361084 -63.31714355 59.59423584 -63.04089355 58.93548584 C-61.85339355 56.87298584 -61.85339355 56.87298584 -58.85339355 55.87298584 C-58.15539051 54.55578655 -57.49279607 53.21960629 -56.85339355 51.87298584 C-55.19714355 49.95111084 -55.19714355 49.95111084 -53.35339355 48.12298584 C-52.74495605 47.50939209 -52.13651855 46.89579834 -51.50964355 46.26361084 C-49.85339355 44.87298584 -49.85339355 44.87298584 -47.85339355 44.87298584 C-47.58526855 44.23361084 -47.31714355 43.59423584 -47.04089355 42.93548584 C-45.85339355 40.87298584 -45.85339355 40.87298584 -42.85339355 39.87298584 C-42.15039125 38.5584479 -41.48810594 37.22182327 -40.85339355 35.87298584 C-39.33798218 34.06323242 -39.33798218 34.06323242 -37.54040527 32.20599365 C-36.52827469 31.15535736 -36.52827469 31.15535736 -35.49569702 30.08349609 C-34.40045212 28.96609039 -34.40045212 28.96609039 -33.28308105 27.82611084 C-32.52802277 27.05490906 -31.77296448 26.28370728 -30.99502563 25.48913574 C-29.39583416 23.86230911 -27.7935287 22.23853856 -26.18835449 20.61761475 C-23.74060436 18.13536873 -21.3208441 15.62779244 -18.90026855 13.11907959 C-17.34204361 11.54060547 -15.78219954 9.96372773 -14.22058105 8.38861084 C-13.50256317 7.63557678 -12.78454529 6.88254272 -12.04476929 6.10668945 C-5.30518642 -0.57604448 -5.30518642 -0.57604448 0 0 Z M-1.85339355 193.87298584 C-2.6816716 194.7034845 -3.50994965 195.53398315 -4.36332703 196.38964844 C-12.17341624 204.22001864 -19.98615164 212.04773999 -27.80147839 219.87288284 C-31.81922083 223.89584149 -35.83602866 227.91972412 -39.85070801 231.94573975 C-43.72587964 235.83178503 -47.60349636 239.715375 -51.48281288 243.59728241 C-52.96163394 245.07794963 -54.43957526 246.55949603 -55.91661644 248.04193878 C-57.98720673 250.11979887 -60.06091659 252.1944973 -62.13537598 254.26849365 C-62.74389908 254.88061203 -63.35242218 255.49273041 -63.97938538 256.12339783 C-66.50084923 258.63878731 -68.96341256 260.95918791 -71.77326965 263.1607666 C-72.45971054 263.72579895 -73.14615143 264.2908313 -73.85339355 264.87298584 C-73.85339355 265.53298584 -73.85339355 266.19298584 -73.85339355 266.87298584 C-74.51339355 266.87298584 -75.17339355 266.87298584 -75.85339355 266.87298584 C-77.52006022 268.20631917 -77.52006022 268.20631917 -78.85339355 269.87298584 C-78.85339355 270.53298584 -78.85339355 271.19298584 -78.85339355 271.87298584 C-80.33839355 272.36798584 -80.33839355 272.36798584 -81.85339355 272.87298584 C-81.85339355 273.53298584 -81.85339355 274.19298584 -81.85339355 274.87298584 C-82.81245605 275.27517334 -82.81245605 275.27517334 -83.79089355 275.68548584 C-86.18471042 276.75966336 -86.18471042 276.75966336 -86.85339355 279.87298584 C-88.33839355 280.36798584 -88.33839355 280.36798584 -89.85339355 280.87298584 C-89.85339355 281.53298584 -89.85339355 282.19298584 -89.85339355 282.87298584 C-90.51339355 282.87298584 -91.17339355 282.87298584 -91.85339355 282.87298584 C-91.85339355 283.53298584 -91.85339355 284.19298584 -91.85339355 284.87298584 C-93.33839355 285.36798584 -93.33839355 285.36798584 -94.85339355 285.87298584 C-94.85339355 286.53298584 -94.85339355 287.19298584 -94.85339355 287.87298584 C-95.4154248 288.11017334 -95.97745605 288.34736084 -96.55651855 288.59173584 C-99.37233397 290.16246281 -101.33294771 292.08770048 -103.60339355 294.37298584 C-104.4026123 295.16704834 -105.20183105 295.96111084 -106.02526855 296.77923584 C-108.07262965 298.66082046 -108.07262965 298.66082046 -107.85339355 300.87298584 C-109.33839355 301.36798584 -109.33839355 301.36798584 -110.85339355 301.87298584 C-110.85339355 302.53298584 -110.85339355 303.19298584 -110.85339355 303.87298584 C-111.43756137 304.13280809 -112.02172918 304.39263035 -112.62359905 304.660326 C-115.01251309 305.95952201 -116.60281275 307.36277561 -118.53010559 309.27554321 C-119.24383835 309.97930084 -119.95757111 310.68305847 -120.69293213 311.40814209 C-121.46558411 312.18012939 -122.23823608 312.9521167 -123.03430176 313.74749756 C-123.85579208 314.56066437 -124.67728241 315.37383118 -125.52366638 316.2116394 C-128.23932456 318.90318614 -130.94724698 321.60234817 -133.6541748 324.30267334 C-135.05912188 325.70092243 -136.46407004 327.09917045 -137.8691861 328.49724972 C-142.28410339 332.89071377 -146.69295011 337.29020989 -151.09875488 341.69281006 C-155.64725193 346.23766483 -160.20873504 350.76919748 -164.77626544 355.29491603 C-168.69682754 359.18083841 -172.60776534 363.07627325 -176.51139516 366.9792043 C-178.84338409 369.3103988 -181.18034754 371.63619676 -183.52492714 373.95473862 C-186.13500874 376.5381192 -188.72899417 379.13665434 -191.31945801 381.73968506 C-192.10223114 382.5076239 -192.88500427 383.27556274 -193.6914978 384.06677246 C-194.39113144 384.77616974 -195.09076508 385.48556702 -195.81159973 386.21646118 C-196.42677114 386.82962126 -197.04194254 387.44278133 -197.6757555 388.07452202 C-199.06675095 389.78442796 -199.06675095 389.78442796 -198.64941281 391.78203446 C-197.65736475 394.38790641 -196.45594795 395.38094671 -194.29472351 397.12667179 C-189.89177367 400.81106565 -185.84155051 404.74782684 -181.79211426 408.81401062 C-181.02165457 409.58361589 -180.25119488 410.35322115 -179.45738792 411.14614779 C-176.89560579 413.70629262 -174.3373965 416.26997698 -171.7791748 418.8336792 C-169.93586858 420.6772677 -168.09234172 422.52063563 -166.24861145 424.36380005 C-162.2894102 428.32247881 -158.33203332 432.28297367 -154.37591553 436.24473381 C-148.65614167 441.97266007 -142.93358443 447.69779896 -137.21036005 453.42227728 C-127.92323359 462.71158839 -118.63833909 472.00312705 -109.3548584 481.29608154 C-100.34073571 490.31939353 -91.32555568 499.34164697 -82.30895996 508.36248779 C-81.75249358 508.9192169 -81.19602719 509.47594601 -80.62269819 510.0495457 C-77.83085918 512.84268981 -75.03899946 515.63581323 -72.24712944 518.42892635 C-49.11267245 541.57373769 -25.98184215 564.72217032 -2.85339355 587.87298584 C0.0350276 586.56420602 2.09923688 585.16922235 4.33501625 582.92787838 C4.94437448 582.32188555 5.55373271 581.71589271 6.18155634 581.09153646 C6.84167479 580.42491021 7.50179324 579.75828396 8.18191528 579.07145691 C8.89037641 578.36399907 9.59883754 577.65654122 10.32876718 576.92764527 C12.7072326 574.5501343 15.07846845 572.16554068 17.4498291 569.78094482 C19.15114912 568.07742419 20.85291681 566.37435055 22.55509949 564.67169189 C26.22208731 561.00176798 29.88602538 557.32882807 33.5472908 553.65319633 C38.84254269 548.33726489 44.14378524 543.02734037 49.44660573 537.71896005 C58.05214427 529.10416599 66.65357245 520.48528058 75.2520752 511.86346436 C75.76666492 511.34748131 76.28125465 510.83149827 76.81143801 510.29987938 C77.58430617 509.52491792 77.58430617 509.52491792 78.37278783 508.73430067 C85.68144116 501.40587045 92.99107011 494.07841522 100.30187988 486.75213623 C100.81644842 486.23647685 101.33101695 485.72081746 101.86117847 485.18953203 C110.43189639 476.60080961 119.00463328 468.01410423 127.57840955 459.42843491 C132.86912057 454.13012262 138.15774165 448.82973927 143.44369875 443.52668405 C147.4892692 439.46820875 151.53724934 435.41214424 155.58611488 431.35695648 C157.25032488 429.68926324 158.91366196 428.0206984 160.57608223 426.35122108 C162.83687104 424.08104332 165.1006711 421.8139123 167.36526489 419.54753113 C168.02984479 418.87867415 168.69442468 418.20981718 169.37914336 417.52069181 C169.98328609 416.91730673 170.58742883 416.31392164 171.20987892 415.69225216 C171.73248413 415.16818309 172.25508933 414.64411402 172.79353106 414.10416406 C174.14660645 412.87298584 174.14660645 412.87298584 176.14660645 411.87298584 C176.14660645 411.21298584 176.14660645 410.55298584 176.14660645 409.87298584 C177.13660645 409.54298584 178.12660645 409.21298584 179.14660645 408.87298584 C179.14660645 408.21298584 179.14660645 407.55298584 179.14660645 406.87298584 C179.80660645 406.87298584 180.46660645 406.87298584 181.14660645 406.87298584 C182.71524727 405.32219514 182.71524727 405.32219514 184.33410645 403.31048584 C187.74862369 399.28623337 191.36505994 395.55108579 195.14660645 391.87298584 C193.49440964 387.61986953 190.32215709 384.77033808 187.14904785 381.62145996 C186.52805017 380.9973423 185.9070525 380.37322464 185.26723671 379.73019433 C183.18228866 377.63726015 181.09025391 375.55155766 178.99816895 373.46575928 C177.50318538 371.96806619 176.00862775 370.46994784 174.51446533 368.97143555 C170.45314611 364.90098712 166.38551198 360.83690427 162.31645966 356.77418804 C158.06495696 352.52774068 153.81832679 348.2764252 149.57092285 344.02587891 C142.43893975 336.89025559 135.30274591 329.75886371 128.16418457 322.62982178 C119.89999365 314.37652382 111.64304384 306.1160341 103.38980293 297.85178733 C96.31236069 290.76528372 89.23104655 283.6826669 82.14645195 276.60331368 C77.91112797 272.37111467 73.67718335 268.13755954 69.44671631 263.90050507 C65.47206017 259.92009251 61.49258356 255.94456438 57.50925446 251.97283173 C56.04414277 250.51037542 54.58075047 249.04619439 53.11916351 247.58021545 C51.13206483 245.58769466 49.13897917 243.60136904 47.14416504 241.61657715 C46.55993082 241.02788149 45.9756966 240.43918582 45.37375832 239.8326509 C42.75056996 236.840329 42.75056996 236.840329 39.14660645 235.87298584 C38.9426123 235.34374512 38.73861816 234.81450439 38.52844238 234.26922607 C36.55861411 230.85334896 33.82140801 228.28302236 31.03723145 225.53314209 C30.43280212 224.92917099 29.8283728 224.32519989 29.20562744 223.70292664 C27.92692539 222.42724146 26.64579796 221.1539834 25.36242676 219.88299561 C23.41235243 217.95108516 21.47030708 216.01138603 19.52941895 214.07025146 C18.28249203 212.82824405 17.03511058 211.58669278 15.78723145 210.34564209 C15.21200745 209.77153091 14.63678345 209.19741974 14.04412842 208.60591125 C11.45848644 206.05006309 8.85730701 203.58566834 6.04406738 201.28094482 C3.23705809 198.94815643 0.70850533 196.46868442 -1.85339355 193.87298584 Z " fill="#FBFBFB" transform="translate(435.8533935546875,-0.87298583984375)"/>
</svg>
